<?xml version="1.0" encoding="UTF-8"?>
<!DOCTYPE svg PUBLIC "-//W3C//DTD SVG 1.1//EN" "http://www.w3.org/Graphics/SVG/1.1/DTD/svg11.dtd">
<svg xmlns="http://www.w3.org/2000/svg" version="1.1" width="292px" height="96px" style="shape-rendering:geometricPrecision; text-rendering:geometricPrecision; image-rendering:optimizeQuality; fill-rule:evenodd; clip-rule:evenodd" xmlns:xlink="http://www.w3.org/1999/xlink">
<g><path style="opacity:1" fill="#b42126" d="M -0.5,-0.5 C 96.8333,-0.5 194.167,-0.5 291.5,-0.5C 291.5,31.5 291.5,63.5 291.5,95.5C 194.167,95.5 96.8333,95.5 -0.5,95.5C -0.5,63.5 -0.5,31.5 -0.5,-0.5 Z"/></g>
<g><path style="opacity:1" fill="#f9ebeb" d="M 37.5,18.5 C 55.2608,16.7886 67.4275,24.1219 74,40.5C 75.665,66.5013 63.4984,79.0013 37.5,78C 19.8989,71.64 12.3989,59.14 15,40.5C 19.1086,29.5566 26.6086,22.2232 37.5,18.5 Z"/></g>
<g><path style="opacity:1" fill="#b72b2d" d="M 60.5,27.5 C 49.6794,28.4946 38.6794,28.8279 27.5,28.5C 27.5,28.1667 27.5,27.8333 27.5,27.5C 38.6102,19.5468 49.6102,19.5468 60.5,27.5 Z"/></g>
<g><path style="opacity:1" fill="#c45356" d="M 60.5,27.5 C 60.8333,27.5 61.1667,27.5 61.5,27.5C 61.5,28.1667 61.5,28.8333 61.5,29.5C 50.1667,29.5 38.8333,29.5 27.5,29.5C 27.5,29.1667 27.5,28.8333 27.5,28.5C 38.6794,28.8279 49.6794,28.4946 60.5,27.5 Z"/></g>
<g><path style="opacity:1" fill="#d68588" d="M 27.5,27.5 C 27.5,27.8333 27.5,28.1667 27.5,28.5C 27.5,28.8333 27.5,29.1667 27.5,29.5C 26.507,37.9839 26.1736,46.6506 26.5,55.5C 25.8333,47.1667 25.1667,38.8333 24.5,30.5C 25.1667,29.1667 26.1667,28.1667 27.5,27.5 Z"/></g>
<g><path style="opacity:1" fill="#d48183" d="M 61.5,27.5 C 62.8333,28.1667 63.8333,29.1667 64.5,30.5C 63.8333,38.8333 63.1667,47.1667 62.5,55.5C 62.8264,46.6506 62.493,37.9839 61.5,29.5C 61.5,28.8333 61.5,28.1667 61.5,27.5 Z"/></g>
<g><path style="opacity:1" fill="#b72a2d" d="M 24.5,30.5 C 25.1667,38.8333 25.8333,47.1667 26.5,55.5C 26.2627,56.791 26.596,57.791 27.5,58.5C 30.1649,65.3385 34.8315,70.5052 41.5,74C 40.9056,74.4643 40.2389,74.631 39.5,74.5C 20.5994,68.3682 14.0994,55.7015 20,36.5C 21.332,34.34 22.832,32.34 24.5,30.5 Z"/></g>
<g><path style="opacity:1" fill="#b92f32" d="M 31.5,32.5 C 31.3359,35.1873 31.5026,37.854 32,40.5C 32.8159,41.8228 33.9826,42.4894 35.5,42.5C 33.7354,43.4614 31.7354,43.7947 29.5,43.5C 28.9197,39.351 29.5864,35.6843 31.5,32.5 Z"/></g>
<g><path style="opacity:1" fill="#eab9b8" d="M 31.5,32.5 C 34.8333,32.5 38.1667,32.5 41.5,32.5C 41.5,35.1667 41.5,37.8333 41.5,40.5C 40.7095,41.4013 39.7095,42.0679 38.5,42.5C 37.5,43.8333 36.5,43.8333 35.5,42.5C 33.9826,42.4894 32.8159,41.8228 32,40.5C 31.5026,37.854 31.3359,35.1873 31.5,32.5 Z"/></g>
<g><path style="opacity:1" fill="#d98f91" d="M 60.5,31.5 C 60.5,31.8333 60.5,32.1667 60.5,32.5C 58.9016,34.8567 57.9016,37.5234 57.5,40.5C 57.5,37.8333 57.5,35.1667 57.5,32.5C 54.4281,32.1826 51.4281,32.5159 48.5,33.5C 50.8857,33.6759 53.5524,33.6759 56.5,33.5C 56.719,34.675 56.3857,35.675 55.5,36.5C 52.9165,35.0623 50.5832,35.3956 48.5,37.5C 48.6236,38.1067 48.9569,38.44 49.5,38.5C 49.8333,39.1667 50.1667,39.8333 50.5,40.5C 49.8333,40.5 49.5,40.8333 49.5,41.5C 48.8826,41.3893 48.3826,41.056 48,40.5C 47.5026,37.854 47.3359,35.1873 47.5,32.5C 45.8333,32.5 44.1667,32.5 42.5,32.5C 42.8064,35.3854 42.4731,38.0521 41.5,40.5C 41.5,37.8333 41.5,35.1667 41.5,32.5C 38.1667,32.5 34.8333,32.5 31.5,32.5C 29.5864,35.6843 28.9197,39.351 29.5,43.5C 31.7354,43.7947 33.7354,43.4614 35.5,42.5C 36.5,43.8333 37.5,43.8333 38.5,42.5C 42.8333,43.8333 47.1667,43.8333 51.5,42.5C 52.5,43.8333 53.5,43.8333 54.5,42.5C 56.2646,43.4614 58.2646,43.7947 60.5,43.5C 60.5,43.8333 60.5,44.1667 60.5,44.5C 49.8333,44.5 39.1667,44.5 28.5,44.5C 28.5,40.1667 28.5,35.8333 28.5,31.5C 39.1667,31.5 49.8333,31.5 60.5,31.5 Z"/></g>
<g><path style="opacity:1" fill="#b6282c" d="M 49.5,41.5 C 50.1667,41.8333 50.8333,42.1667 51.5,42.5C 47.1667,43.8333 42.8333,43.8333 38.5,42.5C 39.7095,42.0679 40.7095,41.4013 41.5,40.5C 42.4731,38.0521 42.8064,35.3854 42.5,32.5C 44.1667,32.5 45.8333,32.5 47.5,32.5C 47.3359,35.1873 47.5026,37.854 48,40.5C 48.3826,41.056 48.8826,41.3893 49.5,41.5 Z"/></g>
<g><path style="opacity:1" fill="#b72b2d" d="M 64.5,30.5 C 74.6927,44.7399 73.3593,57.9066 60.5,70C 56.797,72.354 52.797,73.854 48.5,74.5C 47.7611,74.631 47.0944,74.4643 46.5,74C 54.9454,70.3969 60.2787,64.2303 62.5,55.5C 63.1667,47.1667 63.8333,38.8333 64.5,30.5 Z"/></g>
<g><path style="opacity:1" fill="#ebdfea" d="M 179.5,33.5 C 180.5,33.5 181.5,33.5 182.5,33.5C 182.5,41.1667 182.5,48.8333 182.5,56.5C 181.5,56.5 180.5,56.5 179.5,56.5C 179.5,48.8333 179.5,41.1667 179.5,33.5 Z"/></g>
<g><path style="opacity:1" fill="#fbfffe" d="M 187.5,33.5 C 188.823,36.9377 189.49,40.771 189.5,45C 189.167,48.8333 188.833,52.6667 188.5,56.5C 187.503,48.8622 187.169,41.1955 187.5,33.5 Z"/></g>
<g><path style="opacity:1" fill="#f5e8e9" d="M 250.5,35.5 C 253.448,35.2229 256.281,35.5562 259,36.5C 259.667,37.5 259.667,38.5 259,39.5C 256.599,38.3977 254.099,38.231 251.5,39C 250.167,40.3333 250.167,41.6667 251.5,43C 256.056,44.0832 259.056,46.7498 260.5,51C 260.357,53.151 259.357,54.8176 257.5,56C 254.183,56.4983 250.85,56.665 247.5,56.5C 247.343,55.1266 247.51,53.7932 248,52.5C 251.891,55.5909 255.058,55.0909 257.5,51C 254.52,48.4066 251.353,45.9066 248,43.5C 247.018,40.2253 247.851,37.5586 250.5,35.5 Z"/></g>
<g><path style="opacity:1" fill="#f7e6e6" d="M 57.5,40.5 C 56.7095,41.4013 55.7095,42.0679 54.5,42.5C 53.5,43.8333 52.5,43.8333 51.5,42.5C 50.8333,42.1667 50.1667,41.8333 49.5,41.5C 49.5,40.8333 49.8333,40.5 50.5,40.5C 52.9116,41.9787 54.9116,41.4787 56.5,39C 54.2055,36.1456 51.8721,35.979 49.5,38.5C 48.9569,38.44 48.6236,38.1067 48.5,37.5C 50.5832,35.3956 52.9165,35.0623 55.5,36.5C 56.3857,35.675 56.719,34.675 56.5,33.5C 53.5524,33.6759 50.8857,33.6759 48.5,33.5C 51.4281,32.5159 54.4281,32.1826 57.5,32.5C 57.5,35.1667 57.5,37.8333 57.5,40.5 Z"/></g>
<g><path style="opacity:1" fill="#b82e30" d="M 33.5,37.5 C 35.5,37.5 37.5,37.5 39.5,37.5C 37.5885,42.7794 35.5885,42.7794 33.5,37.5 Z"/></g>
<g><path style="opacity:1" fill="#bc3a3a" d="M 50.5,40.5 C 50.1667,39.8333 49.8333,39.1667 49.5,38.5C 51.8721,35.979 54.2055,36.1456 56.5,39C 54.9116,41.4787 52.9116,41.9787 50.5,40.5 Z"/></g>
<g><path style="opacity:1" fill="#f4e9ed" d="M 105.5,35.5 C 108.833,35.5 112.167,35.5 115.5,35.5C 115.5,36.5 115.5,37.5 115.5,38.5C 106.188,36.3121 102.021,39.9788 103,49.5C 106.025,54.3972 110.025,55.3972 115,52.5C 115.658,54.108 115.158,55.2747 113.5,56C 101.161,56.9747 96.9943,51.4747 101,39.5C 102.667,38.2668 104.167,36.9335 105.5,35.5 Z"/></g>
<g><path style="opacity:1" fill="#f4e9ed" d="M 207.5,35.5 C 210.833,35.5 214.167,35.5 217.5,35.5C 217.5,36.5 217.5,37.5 217.5,38.5C 208.188,36.3121 204.021,39.9788 205,49.5C 208.025,54.3972 212.025,55.3972 217,52.5C 217.658,54.108 217.158,55.2747 215.5,56C 203.161,56.9747 198.994,51.4747 203,39.5C 204.667,38.2668 206.167,36.9335 207.5,35.5 Z"/></g>
<g><path style="opacity:1" fill="#bb3538" d="M 60.5,32.5 C 60.5,36.1667 60.5,39.8333 60.5,43.5C 58.2646,43.7947 56.2646,43.4614 54.5,42.5C 55.7095,42.0679 56.7095,41.4013 57.5,40.5C 57.9016,37.5234 58.9016,34.8567 60.5,32.5 Z"/></g>
<g><path style="opacity:1" fill="#eee1ea" d="M 136.5,41.5 C 138.124,41.3601 139.29,42.0267 140,43.5C 141.555,41.4848 143.389,41.1515 145.5,42.5C 143.195,43.231 141.362,44.5643 140,46.5C 139.502,49.8168 139.335,53.1501 139.5,56.5C 138.5,56.5 137.5,56.5 136.5,56.5C 136.5,51.5 136.5,46.5 136.5,41.5 Z"/></g>
<g><path style="opacity:1" fill="#faf8f5" d="M 147.5,41.5 C 148.75,41.5774 149.583,42.244 150,43.5C 153,40.8333 156,40.8333 159,43.5C 159.828,47.8713 159.661,52.2047 158.5,56.5C 157.675,52.8776 157.175,49.211 157,45.5C 154.368,42.8076 152.034,43.141 150,46.5C 149.824,49.8818 149.324,53.2152 148.5,56.5C 147.506,51.544 147.173,46.544 147.5,41.5 Z"/></g>
<g><path style="opacity:1" fill="#f5e9ea" d="M 262.5,36.5 C 263.601,35.4017 264.934,35.235 266.5,36C 267.874,38.5829 269.374,41.0829 271,43.5C 272.123,40.7513 273.623,38.2513 275.5,36C 276.635,35.2506 277.635,35.4173 278.5,36.5C 276.625,39.7511 274.625,42.9177 272.5,46C 274.587,49.5082 276.92,52.8416 279.5,56C 278.167,56.6667 276.833,56.6667 275.5,56C 274.126,53.4171 272.626,50.9171 271,48.5C 269.045,50.9112 267.211,53.4112 265.5,56C 264.365,56.7494 263.365,56.5827 262.5,55.5C 264.713,52.4565 266.713,49.2899 268.5,46C 266.856,42.532 264.856,39.3654 262.5,36.5 Z"/></g>
<g><path style="opacity:1" fill="#fcf6f6" d="M 27.5,29.5 C 38.8333,29.5 50.1667,29.5 61.5,29.5C 61.6716,30.4916 61.3382,31.1583 60.5,31.5C 49.8333,31.5 39.1667,31.5 28.5,31.5C 28.5,35.8333 28.5,40.1667 28.5,44.5C 39.1667,44.5 49.8333,44.5 60.5,44.5C 56.0767,45.2124 51.0767,45.879 45.5,46.5C 47.8383,48.0395 50.5049,48.7062 53.5,48.5C 52.0813,49.4511 50.4147,49.7845 48.5,49.5C 47.5,49.5 46.5,49.5 45.5,49.5C 44.8333,49.5 44.1667,49.5 43.5,49.5C 42.5,49.5 41.5,49.5 40.5,49.5C 38.5853,49.7845 36.9187,49.4511 35.5,48.5C 37.4147,48.7845 39.0813,48.4511 40.5,47.5C 41.791,47.7373 42.791,47.404 43.5,46.5C 38.6946,45.5128 33.6946,45.1795 28.5,45.5C 28.5,49.1667 28.5,52.8333 28.5,56.5C 28.6716,57.4916 28.3382,58.1583 27.5,58.5C 26.596,57.791 26.2627,56.791 26.5,55.5C 26.1736,46.6506 26.507,37.9839 27.5,29.5 Z"/></g>
<g><path style="opacity:1" fill="#f9efec" d="M 166.5,41.5 C 173.175,40.186 176.509,42.8527 176.5,49.5C 173.167,49.5 169.833,49.5 166.5,49.5C 167.571,54.915 170.404,55.915 175,52.5C 175.124,55.6451 173.457,56.9784 170,56.5C 167.333,56.8333 165.333,55.8333 164,53.5C 162.773,48.938 163.607,44.938 166.5,41.5 Z"/></g>
<g><path style="opacity:1" fill="#b92a2f" d="M 168.5,43.5 C 171.588,43.1966 173.254,44.5299 173.5,47.5C 171.076,47.8076 168.743,47.4742 166.5,46.5C 167.193,45.4822 167.859,44.4822 168.5,43.5 Z"/></g>
<g><path style="opacity:1" fill="#de9d9e" d="M 43.5,46.5 C 38.8333,46.5 34.1667,46.5 29.5,46.5C 29.5,49.8333 29.5,53.1667 29.5,56.5C 29.1667,56.5 28.8333,56.5 28.5,56.5C 28.5,52.8333 28.5,49.1667 28.5,45.5C 33.6946,45.1795 38.6946,45.5128 43.5,46.5 Z"/></g>
<g><path style="opacity:1" fill="#f7eae7" d="M 121.5,41.5 C 129.661,40.1715 133.495,43.5048 133,51.5C 130.565,56.2238 126.731,57.7238 121.5,56C 117.537,51.1678 117.537,46.3345 121.5,41.5 Z"/></g>
<g><path style="opacity:1" fill="#b82a30" d="M 123.5,43.5 C 129.157,43.3244 131.324,45.991 130,51.5C 127.633,54.9318 124.966,55.2652 122,52.5C 121.068,49.1769 121.568,46.1769 123.5,43.5 Z"/></g>
<g><path style="opacity:1" fill="#b5262a" d="M 43.5,46.5 C 42.791,47.404 41.791,47.7373 40.5,47.5C 38.1667,47.5 35.8333,47.5 33.5,47.5C 33.8214,53.0262 33.4881,58.3595 32.5,63.5C 31.2271,61.2872 30.2271,58.9538 29.5,56.5C 29.5,53.1667 29.5,49.8333 29.5,46.5C 34.1667,46.5 38.8333,46.5 43.5,46.5 Z"/></g>
<g><path style="opacity:1" fill="#ba3436" d="M 45.5,46.5 C 50.5,46.5 55.5,46.5 60.5,46.5C 61.5799,52.9467 60.0799,58.6134 56,63.5C 56.1184,58.0675 55.2851,53.0675 53.5,48.5C 50.5049,48.7062 47.8383,48.0395 45.5,46.5 Z"/></g>
<g><path style="opacity:1" fill="#d78789" d="M 40.5,47.5 C 39.0813,48.4511 37.4147,48.7845 35.5,48.5C 34.5119,53.6405 34.1786,58.9738 34.5,64.5C 35.8333,64.5 37.1667,64.5 38.5,64.5C 37.5,65.1667 36.5,65.8333 35.5,66.5C 34.1667,65.8333 33.1667,64.8333 32.5,63.5C 33.4881,58.3595 33.8214,53.0262 33.5,47.5C 35.8333,47.5 38.1667,47.5 40.5,47.5 Z"/></g>
<g><path style="opacity:1" fill="#f7e9e4" d="M 221.5,35.5 C 223.144,35.2865 224.644,35.6198 226,36.5C 228,41.1667 230,45.8333 232,50.5C 234.519,45.9561 236.852,41.2895 239,36.5C 240.356,35.6198 241.856,35.2865 243.5,35.5C 243.5,42.5 243.5,49.5 243.5,56.5C 242.5,56.5 241.5,56.5 240.5,56.5C 240.666,51.4889 240.499,46.4889 240,41.5C 238.027,46.7789 235.527,51.7789 232.5,56.5C 229.505,51.8444 227.005,46.8444 225,41.5C 224.501,46.4889 224.334,51.4889 224.5,56.5C 223.5,56.5 222.5,56.5 221.5,56.5C 221.5,49.5 221.5,42.5 221.5,35.5 Z"/></g>
<g><path style="opacity:1" fill="#f4dcdc" d="M 61.5,29.5 C 62.493,37.9839 62.8264,46.6506 62.5,55.5C 60.2787,64.2303 54.9454,70.3969 46.5,74C 47.0944,74.4643 47.7611,74.631 48.5,74.5C 45.5,75.8333 42.5,75.8333 39.5,74.5C 40.2389,74.631 40.9056,74.4643 41.5,74C 34.8315,70.5052 30.1649,65.3385 27.5,58.5C 28.3382,58.1583 28.6716,57.4916 28.5,56.5C 28.8333,56.5 29.1667,56.5 29.5,56.5C 30.2271,58.9538 31.2271,61.2872 32.5,63.5C 33.1667,64.8333 34.1667,65.8333 35.5,66.5C 37.6279,68.4025 39.9613,70.0692 42.5,71.5C 43.4742,69.2573 43.8076,66.924 43.5,64.5C 41.8333,64.5 40.1667,64.5 38.5,64.5C 37.1667,64.5 35.8333,64.5 34.5,64.5C 34.1786,58.9738 34.5119,53.6405 35.5,48.5C 36.9187,49.4511 38.5853,49.7845 40.5,49.5C 39.4324,50.4345 38.099,50.7678 36.5,50.5C 35.1667,54.5 35.1667,58.5 36.5,62.5C 38.8333,62.5 41.1667,62.5 43.5,62.5C 43.5,58.1667 43.5,53.8333 43.5,49.5C 44.1667,49.5 44.8333,49.5 45.5,49.5C 45.1818,54.0323 45.5151,58.3656 46.5,62.5C 47.1667,62.5 47.8333,62.5 48.5,62.5C 49.9187,63.4511 51.5853,63.7845 53.5,63.5C 53.8182,58.9677 53.4849,54.6344 52.5,50.5C 51.1667,50.5 49.8333,50.5 48.5,50.5C 48.5,50.1667 48.5,49.8333 48.5,49.5C 50.4147,49.7845 52.0813,49.4511 53.5,48.5C 55.2851,53.0675 56.1184,58.0675 56,63.5C 60.0799,58.6134 61.5799,52.9467 60.5,46.5C 55.5,46.5 50.5,46.5 45.5,46.5C 51.0767,45.879 56.0767,45.2124 60.5,44.5C 60.5,44.1667 60.5,43.8333 60.5,43.5C 60.5,39.8333 60.5,36.1667 60.5,32.5C 60.5,32.1667 60.5,31.8333 60.5,31.5C 61.3382,31.1583 61.6716,30.4916 61.5,29.5 Z"/></g>
<g><path style="opacity:1" fill="#bc3a3a" d="M 45.5,64.5 C 48.2706,64.4207 50.9373,64.9207 53.5,66C 51.5296,68.3157 49.1963,70.1491 46.5,71.5C 45.5258,69.2573 45.1924,66.924 45.5,64.5 Z"/></g>
<g><path style="opacity:1" fill="#bb3738" d="M 38.5,64.5 C 40.1667,64.5 41.8333,64.5 43.5,64.5C 43.8076,66.924 43.4742,69.2573 42.5,71.5C 39.9613,70.0692 37.6279,68.4025 35.5,66.5C 36.5,65.8333 37.5,65.1667 38.5,64.5 Z"/></g>
<g><path style="opacity:1" fill="#db8f90" d="M 45.5,49.5 C 46.5,49.5 47.5,49.5 48.5,49.5C 48.5,49.8333 48.5,50.1667 48.5,50.5C 47.7611,50.369 47.0944,50.5357 46.5,51C 53.0784,51.8854 53.0784,53.052 46.5,54.5C 53.0276,55.4835 53.0276,56.6502 46.5,58C 48.2556,58.2022 49.9223,58.7022 51.5,59.5C 49.3449,60.0014 47.6782,61.0014 46.5,62.5C 45.5151,58.3656 45.1818,54.0323 45.5,49.5 Z"/></g>
<g><path style="opacity:1" fill="#b72b2f" d="M 48.5,50.5 C 49.8333,50.5 51.1667,50.5 52.5,50.5C 52.5,54.5 52.5,58.5 52.5,62.5C 51.1667,62.5 49.8333,62.5 48.5,62.5C 47.8333,62.5 47.1667,62.5 46.5,62.5C 47.6782,61.0014 49.3449,60.0014 51.5,59.5C 49.9223,58.7022 48.2556,58.2022 46.5,58C 53.0276,56.6502 53.0276,55.4835 46.5,54.5C 53.0784,53.052 53.0784,51.8854 46.5,51C 47.0944,50.5357 47.7611,50.369 48.5,50.5 Z"/></g>
<g><path style="opacity:1" fill="#d7888a" d="M 52.5,50.5 C 53.4849,54.6344 53.8182,58.9677 53.5,63.5C 51.5853,63.7845 49.9187,63.4511 48.5,62.5C 49.8333,62.5 51.1667,62.5 52.5,62.5C 52.5,58.5 52.5,54.5 52.5,50.5 Z"/></g>
<g><path style="opacity:1" fill="#c04444" d="M 40.5,49.5 C 41.5,49.5 42.5,49.5 43.5,49.5C 43.5,53.8333 43.5,58.1667 43.5,62.5C 41.1667,62.5 38.8333,62.5 36.5,62.5C 37.6782,61.0014 39.3449,60.0014 41.5,59.5C 34.9216,58.052 34.9216,56.8854 41.5,56C 34.9216,55.1146 34.9216,53.948 41.5,52.5C 39.7086,51.8302 38.0419,51.1635 36.5,50.5C 38.099,50.7678 39.4324,50.4345 40.5,49.5 Z"/></g>
<g><path style="opacity:1" fill="#e6b2b4" d="M 36.5,50.5 C 38.0419,51.1635 39.7086,51.8302 41.5,52.5C 34.9216,53.948 34.9216,55.1146 41.5,56C 34.9216,56.8854 34.9216,58.052 41.5,59.5C 39.3449,60.0014 37.6782,61.0014 36.5,62.5C 35.1667,58.5 35.1667,54.5 36.5,50.5 Z"/></g>
</svg>
