<?xml version="1.0" encoding="UTF-8"?>
<!DOCTYPE svg PUBLIC "-//W3C//DTD SVG 1.1//EN" "http://www.w3.org/Graphics/SVG/1.1/DTD/svg11.dtd">
<svg xmlns="http://www.w3.org/2000/svg" version="1.1" width="192px" height="192px" style="shape-rendering:geometricPrecision; text-rendering:geometricPrecision; image-rendering:optimizeQuality; fill-rule:evenodd; clip-rule:evenodd" xmlns:xlink="http://www.w3.org/1999/xlink">
<g><path style="opacity:1" fill="#fdfdfe" d="M -0.5,-0.5 C 63.5,-0.5 127.5,-0.5 191.5,-0.5C 191.5,63.5 191.5,127.5 191.5,191.5C 127.5,191.5 63.5,191.5 -0.5,191.5C -0.5,127.5 -0.5,63.5 -0.5,-0.5 Z"/></g>
<g><path style="opacity:1" fill="#121213" d="M 171.5,61.5 C 170.883,61.6107 170.383,61.944 170,62.5C 169.505,64.4727 169.338,66.4727 169.5,68.5C 167.214,73.73 164.381,78.73 161,83.5C 157.642,86.0312 154.476,88.6979 151.5,91.5C 142.227,96.9669 132.227,99.1336 121.5,98C 115.014,96.4623 108.681,94.4623 102.5,92C 98.299,91.0776 94.299,91.5776 90.5,93.5C 90.4675,88.0696 92.8009,83.5696 97.5,80C 99.5766,78.295 101.91,77.1283 104.5,76.5C 108.684,76.1491 112.684,75.4824 116.5,74.5C 118.842,74.2252 118.842,73.3919 116.5,72C 107.401,66.0355 98.2348,60.2022 89,54.5C 65.9315,68.2844 43.0981,82.4511 20.5,97C 42.665,111.25 64.9983,125.25 87.5,139C 88.5,139.667 89.5,139.667 90.5,139C 112.545,125.317 134.212,111.151 155.5,96.5C 153.041,94.5277 153.041,92.5277 155.5,90.5C 160.789,92.7107 161.789,96.2107 158.5,101C 135.582,116.286 112.249,130.786 88.5,144.5C 65.0876,130.62 41.7542,116.453 18.5,102C 15.7928,100.136 14.9595,97.6363 16,94.5C 39.7926,78.8693 63.9593,63.8693 88.5,49.5C 99.0939,55.1343 109.427,61.301 119.5,68C 120.097,69.8886 120.431,71.7219 120.5,73.5C 126.899,71.9344 130.733,67.9344 132,61.5C 133.098,52.5367 133.765,43.5367 134,34.5C 134.804,33.1955 135.971,32.5288 137.5,32.5C 148.996,37.8322 160.163,43.8322 171,50.5C 171.499,54.1516 171.665,57.8183 171.5,61.5 Z"/></g>
<g><path style="opacity:1" fill="#5245b3" d="M 166.5,57.5 C 165.187,70.3091 159.187,80.1424 148.5,87C 145.136,88.6822 141.802,90.3489 138.5,92C 132.585,93.5275 126.585,93.8608 120.5,93C 113.033,90.122 105.366,87.9553 97.5,86.5C 98.9397,85.0476 100.606,84.0476 102.5,83.5C 106.689,81.8816 111.022,80.8816 115.5,80.5C 123.05,81.0391 129.55,78.7058 135,73.5C 138.36,64.1613 140.193,54.4946 140.5,44.5C 149.434,48.3006 158.101,52.6339 166.5,57.5 Z"/></g>
<g><path style="opacity:1" fill="#e2e1e8" d="M 166.5,57.5 C 158.101,52.6339 149.434,48.3006 140.5,44.5C 140.193,54.4946 138.36,64.1613 135,73.5C 129.55,78.7058 123.05,81.0391 115.5,80.5C 115.5,80.1667 115.5,79.8333 115.5,79.5C 126.985,79.1722 134.152,73.5055 137,62.5C 137.401,54.4508 138.234,46.4508 139.5,38.5C 148.167,43.1667 156.833,47.8333 165.5,52.5C 166.452,54.0453 166.785,55.712 166.5,57.5 Z"/></g>
<g><path style="opacity:1" fill="#eeedf8" d="M 151.5,51.5 C 152.496,51.4142 153.329,51.7476 154,52.5C 154.497,55.146 154.664,57.8127 154.5,60.5C 153.167,60.5 151.833,60.5 150.5,60.5C 150.264,57.3915 150.597,54.3915 151.5,51.5 Z"/></g>
<g><path style="opacity:1" fill="#fbfbfb" d="M 116.5,74.5 C 112.183,74.0834 108.183,74.7501 104.5,76.5C 101.91,77.1283 99.5766,78.295 97.5,80C 92.8009,83.5696 90.4675,88.0696 90.5,93.5C 94.299,91.5776 98.299,91.0776 102.5,92C 108.681,94.4623 115.014,96.4623 121.5,98C 132.227,99.1336 142.227,96.9669 151.5,91.5C 152.833,91.1667 154.167,90.8333 155.5,90.5C 153.041,92.5277 153.041,94.5277 155.5,96.5C 134.212,111.151 112.545,125.317 90.5,139C 89.5,139.667 88.5,139.667 87.5,139C 64.9983,125.25 42.665,111.25 20.5,97C 43.0981,82.4511 65.9315,68.2844 89,54.5C 98.2348,60.2022 107.401,66.0355 116.5,72C 118.842,73.3919 118.842,74.2252 116.5,74.5 Z"/></g>
<g><path style="opacity:1" fill="#645c9a" d="M 171.5,61.5 C 171.59,64.1522 170.924,66.4855 169.5,68.5C 169.338,66.4727 169.505,64.4727 170,62.5C 170.383,61.944 170.883,61.6107 171.5,61.5 Z"/></g>
<g><path style="opacity:1" fill="#efeef8" d="M 147.5,66.5 C 148.5,66.5 149.5,66.5 150.5,66.5C 150.867,70.0498 149.867,73.0498 147.5,75.5C 146.119,75.0004 145.453,74.0004 145.5,72.5C 146.178,70.484 146.844,68.484 147.5,66.5 Z"/></g>
<g><path style="opacity:1" fill="#797979" d="M 116.5,74.5 C 112.684,75.4824 108.684,76.1491 104.5,76.5C 108.183,74.7501 112.183,74.0834 116.5,74.5 Z"/></g>
<g><path style="opacity:1" fill="#e5e3f4" d="M 138.5,77.5 C 141.68,77.1762 142.847,78.5096 142,81.5C 139.815,83.5402 137.315,84.8736 134.5,85.5C 134.343,84.1266 134.51,82.7932 135,81.5C 136.376,80.2949 137.542,78.9616 138.5,77.5 Z"/></g>
<g><path style="opacity:1" fill="#6d6697" d="M 115.5,79.5 C 115.5,79.8333 115.5,80.1667 115.5,80.5C 111.022,80.8816 106.689,81.8816 102.5,83.5C 106.221,80.5957 110.554,79.2623 115.5,79.5 Z"/></g>
<g><path style="opacity:1" fill="#d9d5ef" d="M 106.5,83.5 C 108.924,83.1924 111.257,83.5258 113.5,84.5C 113.291,85.086 112.957,85.586 112.5,86C 109.773,86.8184 107.106,86.6517 104.5,85.5C 105.243,84.8182 105.909,84.1515 106.5,83.5 Z"/></g>
<g><path style="opacity:1" fill="#eeecf7" d="M 120.5,83.5 C 122.857,83.3367 125.19,83.5034 127.5,84C 128.337,85.0113 128.67,86.1779 128.5,87.5C 125.833,87.5 123.167,87.5 120.5,87.5C 120.5,86.1667 120.5,84.8333 120.5,83.5 Z"/></g>
<g><path style="opacity:1" fill="#5f54a5" d="M 169.5,68.5 C 167.342,77.4938 162.676,84.8271 155.5,90.5C 154.167,90.8333 152.833,91.1667 151.5,91.5C 154.476,88.6979 157.642,86.0312 161,83.5C 164.381,78.73 167.214,73.73 169.5,68.5 Z"/></g>
<g><path style="opacity:1" fill="#222222" d="M 86.5,89.5 C 88.3079,90.9179 88.9746,92.9179 88.5,95.5C 90.3307,94.9478 91.9974,94.9478 93.5,95.5C 92.259,98.144 90.259,98.9774 87.5,98C 85.2645,95.4149 84.9312,92.5815 86.5,89.5 Z"/></g>
<g><path style="opacity:1" fill="#181818" d="M 52.5,132.5 C 54.0174,132.511 55.1841,133.177 56,134.5C 58.4249,144.925 64.9249,151.425 75.5,154C 83.5,154.667 91.5,154.667 99.5,154C 111.676,151.82 119.343,144.82 122.5,133C 124.92,132.085 126.253,132.918 126.5,135.5C 122.809,148.685 114.142,156.518 100.5,159C 86.1342,162.407 72.8009,160.073 60.5,152C 53.7488,147.019 51.0821,140.519 52.5,132.5 Z"/></g>
</svg>
